<mxfile host="Electron" modified="2023-05-07T18:07:40.792Z" agent="Mozilla/5.0 (Windows NT 10.0; Win64; x64) AppleWebKit/537.36 (KHTML, like Gecko) draw.io/21.2.8 Chrome/112.0.5615.165 Electron/24.2.0 Safari/537.36" etag="tAl-V8sRp82esMnzHkAn" version="21.2.8" type="device">
  <diagram id="prtHgNgQTEPvFCAcTncT" name="Page-1">
    <mxGraphModel dx="3312" dy="1989" grid="1" gridSize="10" guides="1" tooltips="1" connect="1" arrows="1" fold="1" page="1" pageScale="1" pageWidth="827" pageHeight="1169" math="0" shadow="0">
      <root>
        <mxCell id="0" />
        <mxCell id="1" parent="0" />
        <mxCell id="tkY8nKzGQ9oVMycqAYyt-13" value="0&lt;br&gt;Sign Up&lt;br&gt;1" style="html=1;fillColor=#FFFFFF;strokeColor=#030303;sketch=1;shadow=0;" parent="1" vertex="1">
          <mxGeometry x="-486" y="-460" width="132" height="100" as="geometry" />
        </mxCell>
        <mxCell id="tkY8nKzGQ9oVMycqAYyt-4" style="edgeStyle=orthogonalEdgeStyle;rounded=0;orthogonalLoop=1;jettySize=auto;html=1;exitX=0;exitY=0.5;exitDx=0;exitDy=0;entryX=0.5;entryY=0;entryDx=0;entryDy=0;endArrow=none;endFill=0;" parent="1" source="tkY8nKzGQ9oVMycqAYyt-11" target="tkY8nKzGQ9oVMycqAYyt-16" edge="1">
          <mxGeometry relative="1" as="geometry" />
        </mxCell>
        <mxCell id="tkY8nKzGQ9oVMycqAYyt-5" style="edgeStyle=orthogonalEdgeStyle;rounded=0;orthogonalLoop=1;jettySize=auto;html=1;exitX=1;exitY=0.5;exitDx=0;exitDy=0;entryX=0.5;entryY=0;entryDx=0;entryDy=0;endArrow=none;endFill=0;" parent="1" target="tkY8nKzGQ9oVMycqAYyt-22" edge="1">
          <mxGeometry relative="1" as="geometry">
            <mxPoint x="-214.00000000000045" y="-180" as="sourcePoint" />
          </mxGeometry>
        </mxCell>
        <mxCell id="tkY8nKzGQ9oVMycqAYyt-7" style="edgeStyle=orthogonalEdgeStyle;rounded=0;orthogonalLoop=1;jettySize=auto;html=1;exitX=0;exitY=0.5;exitDx=0;exitDy=0;entryX=0.5;entryY=0;entryDx=0;entryDy=0;endArrow=none;endFill=0;" parent="1" source="tkY8nKzGQ9oVMycqAYyt-11" target="tkY8nKzGQ9oVMycqAYyt-19" edge="1">
          <mxGeometry relative="1" as="geometry" />
        </mxCell>
        <mxCell id="tkY8nKzGQ9oVMycqAYyt-8" style="edgeStyle=orthogonalEdgeStyle;rounded=0;orthogonalLoop=1;jettySize=auto;html=1;exitX=1;exitY=0.5;exitDx=0;exitDy=0;entryX=0.5;entryY=0;entryDx=0;entryDy=0;endArrow=none;endFill=0;" parent="1" source="tkY8nKzGQ9oVMycqAYyt-11" target="tkY8nKzGQ9oVMycqAYyt-26" edge="1">
          <mxGeometry relative="1" as="geometry">
            <mxPoint x="-214.00000000000045" y="-180" as="sourcePoint" />
            <Array as="points">
              <mxPoint x="136" y="-180" />
            </Array>
          </mxGeometry>
        </mxCell>
        <mxCell id="tkY8nKzGQ9oVMycqAYyt-11" value="2&lt;br&gt;Main Page&lt;br&gt;1.1.1" style="html=1;fillColor=#FFFFFF;strokeColor=#030303;sketch=1;" parent="1" vertex="1">
          <mxGeometry x="-486" y="-230" width="132" height="100" as="geometry" />
        </mxCell>
        <mxCell id="tkY8nKzGQ9oVMycqAYyt-12" style="edgeStyle=orthogonalEdgeStyle;rounded=0;orthogonalLoop=1;jettySize=auto;html=1;exitX=0.5;exitY=1;exitDx=0;exitDy=0;entryX=0.5;entryY=0;entryDx=0;entryDy=0;" parent="1" source="tkY8nKzGQ9oVMycqAYyt-13" target="tkY8nKzGQ9oVMycqAYyt-15" edge="1">
          <mxGeometry relative="1" as="geometry" />
        </mxCell>
        <mxCell id="tkY8nKzGQ9oVMycqAYyt-14" style="edgeStyle=orthogonalEdgeStyle;rounded=0;orthogonalLoop=1;jettySize=auto;html=1;exitX=0.5;exitY=1;exitDx=0;exitDy=0;entryX=0.5;entryY=0;entryDx=0;entryDy=0;" parent="1" source="tkY8nKzGQ9oVMycqAYyt-15" target="tkY8nKzGQ9oVMycqAYyt-11" edge="1">
          <mxGeometry relative="1" as="geometry" />
        </mxCell>
        <mxCell id="tkY8nKzGQ9oVMycqAYyt-15" value="1&lt;br&gt;Login&lt;br&gt;1.1" style="html=1;fillColor=#FFFFFF;strokeColor=#030303;sketch=1;" parent="1" vertex="1">
          <mxGeometry x="-486" y="-345" width="132" height="100" as="geometry" />
        </mxCell>
        <mxCell id="tkY8nKzGQ9oVMycqAYyt-16" value="3&lt;br&gt;Maintenance Request&lt;br style=&quot;border-color: var(--border-color);&quot;&gt;1.1.1.1" style="html=1;fillColor=#FFFFFF;strokeColor=#030303;sketch=1;" parent="1" vertex="1">
          <mxGeometry x="-1070" y="-83" width="132" height="100" as="geometry" />
        </mxCell>
        <mxCell id="tkY8nKzGQ9oVMycqAYyt-17" style="edgeStyle=orthogonalEdgeStyle;rounded=0;orthogonalLoop=1;jettySize=auto;html=1;exitX=0.5;exitY=1;exitDx=0;exitDy=0;entryX=0.5;entryY=0;entryDx=0;entryDy=0;endArrow=none;endFill=0;" parent="1" source="tkY8nKzGQ9oVMycqAYyt-19" target="tkY8nKzGQ9oVMycqAYyt-32" edge="1">
          <mxGeometry relative="1" as="geometry">
            <Array as="points">
              <mxPoint x="-610" y="17" />
              <mxPoint x="-610" y="130" />
              <mxPoint x="-710" y="130" />
              <mxPoint x="-710" y="242" />
            </Array>
          </mxGeometry>
        </mxCell>
        <mxCell id="tkY8nKzGQ9oVMycqAYyt-18" style="edgeStyle=orthogonalEdgeStyle;rounded=0;orthogonalLoop=1;jettySize=auto;html=1;exitX=0.5;exitY=1;exitDx=0;exitDy=0;entryX=0.5;entryY=0;entryDx=0;entryDy=0;fontSize=9;endArrow=none;endFill=0;" parent="1" source="tkY8nKzGQ9oVMycqAYyt-19" target="tkY8nKzGQ9oVMycqAYyt-37" edge="1">
          <mxGeometry relative="1" as="geometry">
            <Array as="points">
              <mxPoint x="-610" y="17" />
              <mxPoint x="-610" y="70" />
              <mxPoint x="-590" y="70" />
              <mxPoint x="-590" y="170" />
              <mxPoint x="-531" y="170" />
              <mxPoint x="-531" y="210" />
            </Array>
          </mxGeometry>
        </mxCell>
        <mxCell id="tkY8nKzGQ9oVMycqAYyt-19" value="4&lt;br&gt;Payment &lt;br&gt;1.1.1.2" style="html=1;fillColor=#FFFFFF;strokeColor=#030303;sketch=1;" parent="1" vertex="1">
          <mxGeometry x="-680" y="-83" width="132" height="100" as="geometry" />
        </mxCell>
        <mxCell id="tkY8nKzGQ9oVMycqAYyt-21" style="edgeStyle=orthogonalEdgeStyle;rounded=0;orthogonalLoop=1;jettySize=auto;html=1;exitX=0.5;exitY=1;exitDx=0;exitDy=0;entryX=0.5;entryY=0;entryDx=0;entryDy=0;endArrow=none;endFill=0;" parent="1" source="tkY8nKzGQ9oVMycqAYyt-22" target="tkY8nKzGQ9oVMycqAYyt-27" edge="1">
          <mxGeometry relative="1" as="geometry">
            <Array as="points">
              <mxPoint x="-164" y="120" />
              <mxPoint x="-174" y="120" />
            </Array>
          </mxGeometry>
        </mxCell>
        <mxCell id="tkY8nKzGQ9oVMycqAYyt-22" value="5&lt;br&gt;Feedback&lt;br&gt;1.1.1.3" style="html=1;fillColor=#FFFFFF;strokeColor=#030303;sketch=1;" parent="1" vertex="1">
          <mxGeometry x="-230" y="-80" width="132" height="100" as="geometry" />
        </mxCell>
        <mxCell id="tkY8nKzGQ9oVMycqAYyt-23" style="edgeStyle=orthogonalEdgeStyle;rounded=0;orthogonalLoop=1;jettySize=auto;html=1;exitX=0.5;exitY=1;exitDx=0;exitDy=0;entryX=0.5;entryY=0;entryDx=0;entryDy=0;fontSize=9;endArrow=none;endFill=0;" parent="1" source="tkY8nKzGQ9oVMycqAYyt-26" target="tkY8nKzGQ9oVMycqAYyt-38" edge="1">
          <mxGeometry relative="1" as="geometry">
            <Array as="points">
              <mxPoint x="136" y="90" />
              <mxPoint x="290" y="90" />
              <mxPoint x="290" y="180" />
            </Array>
          </mxGeometry>
        </mxCell>
        <mxCell id="tkY8nKzGQ9oVMycqAYyt-26" value="6&lt;br&gt;Notifications&lt;br&gt;1.1.1.4" style="html=1;fillColor=#FFFFFF;strokeColor=#030303;sketch=1;" parent="1" vertex="1">
          <mxGeometry x="70" y="-80" width="132" height="100" as="geometry" />
        </mxCell>
        <mxCell id="tkY8nKzGQ9oVMycqAYyt-27" value="5.1&lt;br&gt;Submit Feedback&lt;br&gt;1.1.1.3.1" style="html=1;fillColor=#FFFFFF;strokeColor=#030303;sketch=1;" parent="1" vertex="1">
          <mxGeometry x="-240" y="186" width="132" height="100" as="geometry" />
        </mxCell>
        <mxCell id="tkY8nKzGQ9oVMycqAYyt-29" style="edgeStyle=orthogonalEdgeStyle;rounded=0;orthogonalLoop=1;jettySize=auto;html=1;exitX=0.5;exitY=0;exitDx=0;exitDy=0;endArrow=none;endFill=0;" parent="1" source="tkY8nKzGQ9oVMycqAYyt-30" edge="1">
          <mxGeometry relative="1" as="geometry">
            <Array as="points">
              <mxPoint x="-1163" y="60" />
              <mxPoint x="-999" y="60" />
              <mxPoint x="-999" y="17" />
            </Array>
            <mxPoint x="-999" y="20" as="targetPoint" />
          </mxGeometry>
        </mxCell>
        <mxCell id="tkY8nKzGQ9oVMycqAYyt-30" value="3.1&lt;br&gt;Submit New &lt;br&gt;MaintenanceRequest&lt;br&gt;1.1.1.1.1" style="html=1;fillColor=#FFFFFF;strokeColor=#030303;sketch=1;" parent="1" vertex="1">
          <mxGeometry x="-1229" y="86" width="132" height="100" as="geometry" />
        </mxCell>
        <mxCell id="tkY8nKzGQ9oVMycqAYyt-32" value="4.1&lt;br&gt;&lt;span style=&quot;background-color: initial;&quot;&gt;Payment Methods &lt;br&gt;Page&lt;/span&gt;&lt;br&gt;1.1.1.2.1" style="html=1;fillColor=#FFFFFF;strokeColor=#030303;sketch=1;" parent="1" vertex="1">
          <mxGeometry x="-809" y="242" width="132" height="100" as="geometry" />
        </mxCell>
        <mxCell id="tkY8nKzGQ9oVMycqAYyt-37" value="4.2&lt;br&gt;&lt;div style=&quot;text-align: center;&quot;&gt;&lt;span style=&quot;background-color: initial; text-align: start;&quot;&gt;Expense Tracing Page&lt;/span&gt;&lt;/div&gt;&lt;div style=&quot;text-align: center;&quot;&gt;&lt;span style=&quot;background-color: initial; color: rgba(0, 0, 0, 0); font-family: monospace; font-size: 0px; text-align: start;&quot;&gt;V%3CmxGraphModel%3E%3Croot%3E%3CmxCell%20id%3D%220%22%2F%3E%3CmxCell%20id%3D%221%22%20parent%3D%220%22%2F%3E%3CmxCell%20id%3D%222%22%20value%3D%224.1%26lt%3Bbr%26gt%3BFood%26lt%3Bbr%26gt%3B1.1.1.2%22%20style%3D%22html%3D1%3BfillColor%3D%23ffe6cc%3BstrokeColor%3D%23d79b00%3Bsketch%3D1%3B%22%20vertex%3D%221%22%20parent%3D%221%22%3E%3CmxGeometry%20x%3D%2214%22%20y%3D%22413%22%20width%3D%22132%22%20height%3D%22100%22%20as%3D%22geometry%22%2F%3E%3C%2FmxCell%3E%3C%2Froot%3E%3C%2FmxGraphModel%3Ev&lt;/span&gt;&lt;span style=&quot;background-color: initial;&quot;&gt;1.1.1.2.2&lt;/span&gt;&lt;/div&gt;" style="html=1;fillColor=#FFFFFF;strokeColor=#030303;sketch=1;" parent="1" vertex="1">
          <mxGeometry x="-649" y="210" width="175" height="120" as="geometry" />
        </mxCell>
        <mxCell id="tkY8nKzGQ9oVMycqAYyt-38" value="6.1&lt;br&gt;Notifaction Settings&lt;br&gt;1.1.1.4.1" style="html=1;fillColor=#FFFFFF;strokeColor=#030303;sketch=1;" parent="1" vertex="1">
          <mxGeometry x="220" y="162" width="132" height="100" as="geometry" />
        </mxCell>
        <mxCell id="tkY8nKzGQ9oVMycqAYyt-49" value="3.2&lt;br&gt;View The Status of &lt;br&gt;Existing&amp;nbsp;requests&lt;br&gt;1.1.1.1.2" style="html=1;fillColor=#FFFFFF;strokeColor=#030303;sketch=1;" parent="1" vertex="1">
          <mxGeometry x="-1049" y="86" width="132" height="100" as="geometry" />
        </mxCell>
        <mxCell id="tkY8nKzGQ9oVMycqAYyt-50" style="edgeStyle=orthogonalEdgeStyle;rounded=0;orthogonalLoop=1;jettySize=auto;html=1;endArrow=none;endFill=0;entryX=0.5;entryY=0;entryDx=0;entryDy=0;" parent="1" target="tkY8nKzGQ9oVMycqAYyt-49" edge="1">
          <mxGeometry relative="1" as="geometry">
            <mxPoint x="-999" y="17" as="sourcePoint" />
            <mxPoint x="-963" y="90" as="targetPoint" />
            <Array as="points">
              <mxPoint x="-999" y="17" />
              <mxPoint x="-999" y="60" />
              <mxPoint x="-983" y="60" />
            </Array>
          </mxGeometry>
        </mxCell>
        <mxCell id="tkY8nKzGQ9oVMycqAYyt-51" value="3.3&lt;br&gt;Communicate with &lt;br&gt;Building Managers&lt;br&gt;1.1.1.1.3" style="html=1;fillColor=#FFFFFF;strokeColor=#030303;sketch=1;" parent="1" vertex="1">
          <mxGeometry x="-879" y="86" width="132" height="100" as="geometry" />
        </mxCell>
        <mxCell id="tkY8nKzGQ9oVMycqAYyt-52" style="edgeStyle=orthogonalEdgeStyle;rounded=0;orthogonalLoop=1;jettySize=auto;html=1;exitX=0.5;exitY=1;exitDx=0;exitDy=0;entryX=0.5;entryY=0;entryDx=0;entryDy=0;endArrow=none;endFill=0;" parent="1" target="hf5xiHp4PYboIX8LJVh9-3" edge="1">
          <mxGeometry relative="1" as="geometry">
            <Array as="points">
              <mxPoint x="-610" y="17" />
              <mxPoint x="-610" y="66" />
              <mxPoint x="-413" y="66" />
            </Array>
            <mxPoint x="-677" y="17" as="sourcePoint" />
            <mxPoint x="-537" y="51" as="targetPoint" />
          </mxGeometry>
        </mxCell>
        <mxCell id="tkY8nKzGQ9oVMycqAYyt-53" style="edgeStyle=orthogonalEdgeStyle;rounded=0;orthogonalLoop=1;jettySize=auto;html=1;exitX=0.5;exitY=1;exitDx=0;exitDy=0;entryX=0.5;entryY=0;entryDx=0;entryDy=0;endArrow=none;endFill=0;" parent="1" target="tkY8nKzGQ9oVMycqAYyt-51" edge="1">
          <mxGeometry relative="1" as="geometry">
            <Array as="points">
              <mxPoint x="-999" y="60" />
              <mxPoint x="-813" y="60" />
            </Array>
            <mxPoint x="-999" y="18" as="sourcePoint" />
            <mxPoint x="-859" y="52" as="targetPoint" />
          </mxGeometry>
        </mxCell>
        <mxCell id="tkY8nKzGQ9oVMycqAYyt-55" style="edgeStyle=orthogonalEdgeStyle;rounded=0;orthogonalLoop=1;jettySize=auto;html=1;exitX=0.5;exitY=1;exitDx=0;exitDy=0;" parent="1" edge="1">
          <mxGeometry relative="1" as="geometry">
            <mxPoint x="-829" y="-1070" as="sourcePoint" />
            <mxPoint x="-829" y="-1070" as="targetPoint" />
          </mxGeometry>
        </mxCell>
        <mxCell id="hf5xiHp4PYboIX8LJVh9-3" value="4.3&lt;br&gt;&lt;div style=&quot;text-align: center;&quot;&gt;&lt;span style=&quot;background-color: initial; text-align: start;&quot;&gt;Payment History Page&lt;/span&gt;&lt;/div&gt;&lt;div style=&quot;text-align: center;&quot;&gt;&lt;span style=&quot;background-color: initial; color: rgba(0, 0, 0, 0); font-family: monospace; font-size: 0px; text-align: start;&quot;&gt;V%3CmxGraphModel%3E%3Croot%3E%3CmxCell%20id%3D%220%22%2F%3E%3CmxCell%20id%3D%221%22%20parent%3D%220%22%2F%3E%3CmxCell%20id%3D%222%22%20value%3D%224.1%26lt%3Bbr%26gt%3BFood%26lt%3Bbr%26gt%3B1.1.1.2%22%20style%3D%22html%3D1%3BfillColor%3D%23ffe6cc%3BstrokeColor%3D%23d79b00%3Bsketch%3D1%3B%22%20vertex%3D%221%22%20parent%3D%221%22%3E%3CmxGeometry%20x%3D%2214%22%20y%3D%22413%22%20width%3D%22132%22%20height%3D%22100%22%20as%3D%22geometry%22%2F%3E%3C%2FmxCell%3E%3C%2Froot%3E%3C%2FmxGraphModel%3Ev&lt;/span&gt;&lt;span style=&quot;background-color: initial;&quot;&gt;1.1.1.2.3&lt;/span&gt;&lt;br&gt;&lt;/div&gt;" style="html=1;fillColor=#FFFFFF;strokeColor=#030303;sketch=1;" parent="1" vertex="1">
          <mxGeometry x="-501" y="42" width="161" height="98" as="geometry" />
        </mxCell>
        <mxCell id="hf5xiHp4PYboIX8LJVh9-5" value="5.2&lt;br&gt;Feedback History&lt;br&gt;1.1.1.3.2" style="html=1;fillColor=#FFFFFF;strokeColor=#030303;sketch=1;" parent="1" vertex="1">
          <mxGeometry x="-40" y="180" width="130" height="100" as="geometry" />
        </mxCell>
        <mxCell id="hf5xiHp4PYboIX8LJVh9-6" style="edgeStyle=orthogonalEdgeStyle;rounded=0;orthogonalLoop=1;jettySize=auto;html=1;entryX=0.5;entryY=0;entryDx=0;entryDy=0;endArrow=none;endFill=0;exitX=0.5;exitY=1;exitDx=0;exitDy=0;" parent="1" source="tkY8nKzGQ9oVMycqAYyt-22" target="hf5xiHp4PYboIX8LJVh9-5" edge="1">
          <mxGeometry relative="1" as="geometry">
            <mxPoint x="81" y="30" as="sourcePoint" />
            <mxPoint x="111" y="75" as="targetPoint" />
            <Array as="points">
              <mxPoint x="-164" y="120" />
              <mxPoint x="6" y="120" />
            </Array>
          </mxGeometry>
        </mxCell>
      </root>
    </mxGraphModel>
  </diagram>
</mxfile>
